<svg id="Layer_1" data-name="Layer 1" xmlns="http://www.w3.org/2000/svg" viewBox="0 0 101 101"><title>log_Artboard 2 copy 3</title><path d="M52.5,82h-24c-7.13,0-12.93-6.06-12.93-13.5S21.34,55,28.47,55h41.1c8.78,0,15.93-7.4,15.93-16.5S78.35,22,69.56,22H38.5a1.5,1.5,0,0,0,0,3H69.56c7.13,0,12.93,6.06,12.93,13.5S76.69,52,69.56,52H28.47c-8.78,0-15.93,7.4-15.93,16.5S19.68,85,28.47,85h24a1.5,1.5,0,0,0,0-3Z"/><path d="M20.5,32A8.5,8.5,0,1,0,12,23.5,8.51,8.51,0,0,0,20.5,32Zm0-14A5.5,5.5,0,1,1,15,23.5,5.51,5.51,0,0,1,20.5,18Z"/><path d="M80.59,72.48a1.5,1.5,0,0,0-2.12,0l-5.79,5.79-5.79-5.79a1.5,1.5,0,0,0-2.12,2.12l5.79,5.79-5.79,5.79a1.5,1.5,0,1,0,2.12,2.12l5.79-5.79,5.79,5.79a1.5,1.5,0,0,0,2.12-2.12L74.8,80.39l5.79-5.79A1.5,1.5,0,0,0,80.59,72.48Z"/></svg>