<svg id="Layer_1" data-name="Layer 1" xmlns="http://www.w3.org/2000/svg" viewBox="0 0 101 101"><title>log_Artboard 32</title><path d="M52.5,79h-34A28.45,28.45,0,0,1,46.85,52a28.12,28.12,0,0,1,15.33,4.53A1.5,1.5,0,0,0,63.82,54a31.12,31.12,0,0,0-17-5A31.46,31.46,0,0,0,15.5,80.5,1.5,1.5,0,0,0,17,82H52.5a1.5,1.5,0,0,0,0-3Z"/><path d="M47,45.5A18.5,18.5,0,1,0,28.5,27,18.53,18.53,0,0,0,47,45.5Zm0-34A15.5,15.5,0,1,1,31.5,27,15.52,15.52,0,0,1,47,11.5Z"/><path d="M90.06,65.36l-5.59-5.59a1.5,1.5,0,0,0-2.12,2.12L84.45,64h-23a1.5,1.5,0,0,0,0,3H86.3l-4,4a1.5,1.5,0,1,0,2.12,2.12l5.59-5.59a1.5,1.5,0,0,0,0-2.12Z"/><path d="M87.5,78H62l4.12-4.12A1.5,1.5,0,0,0,64,71.75l-5.59,5.59a1.5,1.5,0,0,0,0,2.12L64,85.06a1.5,1.5,0,1,0,2.12-2.12L64.15,81H87.5a1.5,1.5,0,0,0,0-3Z"/></svg>