<svg id="Layer_1" data-name="Layer 1" xmlns="http://www.w3.org/2000/svg" viewBox="0 0 101 101"><title>log_Artboard 32 copy</title><path d="M50.85,52.49a33,33,0,0,0-33,33,1.5,1.5,0,0,0,1.5,1.5h63a1.5,1.5,0,0,0,1.5-1.5A33,33,0,0,0,50.85,52.49ZM20.88,84a30,30,0,0,1,59.93,0Z"/><path d="M50.3,10.93a19,19,0,1,0,19,19A19.07,19.07,0,0,0,50.3,10.93ZM50.3,46a16,16,0,1,1,16-16A16.07,16.07,0,0,1,50.3,46Z"/><path d="M25.52,40h2A1.5,1.5,0,0,0,29,38.5v-18a1.5,1.5,0,0,0,0-.31A23.47,23.47,0,0,1,72,21V38.5a1.5,1.5,0,0,0,0,.32,23.42,23.42,0,0,1-5,7.65,1.5,1.5,0,1,0,2.13,2.11A26.39,26.39,0,0,0,74.81,40h.67a10.5,10.5,0,1,0,0-21H74.39a26.46,26.46,0,0,0-48.17,0h-.69a10.5,10.5,0,0,0,0,21ZM83,29.5a7.51,7.51,0,0,1-7.5,7.5H75V22h.48A7.51,7.51,0,0,1,83,29.5ZM25.52,22H26V37h-.48a7.5,7.5,0,0,1,0-15Z"/></svg>