<svg id="Слой_1" data-name="Слой 1" xmlns="http://www.w3.org/2000/svg" viewBox="0 0 100 100"><title>testМонтажная область 15</title><path d="M79.54,15l-.18-.18a1.49,1.49,0,0,0-.77-.74C64.91,1,44.92-1.22,27.28,8.42a1.5,1.5,0,0,0-.35,2.37L55.86,40,22.16,73.67a6.26,6.26,0,0,1-8.83,0,6.23,6.23,0,0,1,0-8.82,1.5,1.5,0,1,0-2.12-2.12A9.24,9.24,0,0,0,24.28,75.79L58,42.15,84.6,69.06a1.5,1.5,0,0,0,1.07.44l.22,0A1.5,1.5,0,0,0,87,68.71C96.45,51,93.38,28.94,79.54,15Zm-31,13.43a1.49,1.49,0,0,0,.44-.27C63.26,15.25,74.58,16.31,77.07,16.74l.29.28c.31,1.16,3.74,15.25-9.48,30.88ZM73.36,13.5c-5.53.15-15.12,2.23-26.37,12.39a1.47,1.47,0,0,0-.37.54L30.5,10.13C45.18,2.88,61.33,4.23,73.36,13.5Zm11.9,52L70,50C80,38.3,81.3,27.37,81,21.21A43.21,43.21,0,0,1,85.27,65.46Z"/><path d="M63.5,72.08a1.5,1.5,0,0,0,3,0c0-4.22-3.7-7.71-8.5-8.32V61a1.5,1.5,0,0,0-3,0v2.76c-4.8.61-8.5,4.11-8.5,8.32s3.7,7.7,8.5,8.31V91.22c-3.14-.53-5.5-2.71-5.5-5.3a1.5,1.5,0,0,0-3,0c0,4.22,3.7,7.71,8.5,8.32V97a1.5,1.5,0,0,0,3,0V94.24c4.8-.61,8.5-4.11,8.5-8.32s-3.7-7.7-8.5-8.31V66.78C61.14,67.32,63.5,69.49,63.5,72.08Zm-14,0c0-2.59,2.36-4.76,5.5-5.3V77.37C51.86,76.84,49.5,74.67,49.5,72.08Zm14,13.84c0,2.59-2.36,4.76-5.5,5.3V80.63C61.14,81.16,63.5,83.33,63.5,85.92Z"/></svg>